Coordinates
version=1
nRows=8
nColumns=40
inDegrees=yes

Units are S.I. units (second, meters, Newtons, ...)
Angles are in degrees.

endheader
time	pelvis_tilt	pelvis_list	pelvis_rotation	pelvis_tx	pelvis_ty	pelvis_tz	hip_flexion_r	hip_adduction_r	hip_rotation_r	knee_angle_r	knee_angle_r_beta	ankle_angle_r	subtalar_angle_r	mtp_angle_r	hip_flexion_l	hip_adduction_l	hip_rotation_l	knee_angle_l	knee_angle_l_beta	ankle_angle_l	subtalar_angle_l	mtp_angle_l	lumbar_extension	lumbar_bending	lumbar_rotation	arm_flex_r	arm_add_r	arm_rot_r	elbow_flex_r	pro_sup_r	wrist_flex_r	wrist_dev_r	arm_flex_l	arm_add_l	arm_rot_l	elbow_flex_l	pro_sup_l	wrist_flex_l	wrist_dev_l
      8.94500000	     -2.76330281	     -1.97682719	      0.74486080	      1.05426745	      0.92096909	      0.44148459	     29.23689140	     -4.07300539	    -16.01982590	     12.90555251	     12.90555251	      3.61527218	      1.51825573	     11.76046448	     -2.43607457	     -1.36133573	    -11.93414821	     12.48238256	     12.48238256	     19.18229648	     -1.17611638	     -6.48798397	    -10.89529576	      4.10687897	      1.20316458	    -17.30120581	    -11.21667577	    -16.39344060	     21.58544168	     47.50663121	      0.00000000	      0.00000000	     27.02825080	    -18.48200905	     -1.99649974	     81.39043028	     47.26819266	      0.00000000	      0.00000000
      8.95621429	     -2.74179359	     -1.82945646	      0.91356032	      1.05603405	      0.91909541	      0.44227088	     28.68417042	     -3.98972459	    -16.33531379	     12.25257505	     12.25257505	      3.35805730	      1.48786351	     11.84215696	     -3.24208891	     -1.32143517	    -11.90609802	     12.45175590	     12.45175590	     19.73677202	     -0.73471035	     -6.39495102	    -10.59401322	      3.93014106	      1.20881573	    -18.48549702	    -11.22025892	    -16.41211920	     21.62482604	     47.48589834	      0.00000000	      0.00000000	     27.48318744	    -18.45575781	     -2.13802186	     82.27490651	     47.31002351	      0.00000000	      0.00000000
      8.96742857	     -2.73557060	     -1.70616535	      1.08995196	      1.05794326	      0.91713342	      0.44327206	     28.25730200	     -3.93099252	    -16.47405145	     12.14277812	     12.14277812	      2.39417773	      0.95860256	      9.41078088	     -3.89297493	     -1.44144010	    -12.37272476	     12.79206332	     12.79206332	     20.94301897	      0.59370941	     -5.32276745	    -10.32508904	      3.78271377	      1.01528189	    -20.03199833	    -11.24599809	    -16.18557401	     23.33317419	     47.32633099	      0.00000000	      0.00000000	     27.52408196	    -18.71900396	     -2.37588267	     83.80910288	     47.42388683	      0.00000000	      0.00000000
      8.97864286	     -2.79052936	     -1.67882741	      1.30483605	      1.05979761	      0.91541864	      0.44430894	     27.97689403	     -3.88534475	    -16.71616979	     12.53445446	     12.53445446	      2.08767942	      0.60474523	      9.30620578	     -4.55810567	     -1.56271340	    -12.15312549	     12.84046854	     12.84046854	     21.30694707	      0.70852634	     -5.40456166	     -9.92310430	      3.74741522	      0.83656337	    -20.76297576	    -11.31529849	    -16.19584740	     23.10215417	     47.32905974	      0.00000000	      0.00000000	     27.78959921	    -18.83487864	     -2.48496540	     84.06847711	     47.43988108	      0.00000000	      0.00000000
      8.98985714	     -2.72096510	     -1.61296811	      1.43347743	      1.06189934	      0.91367796	      0.44580170	     27.68971795	     -3.76712372	    -16.10741296	     13.18309288	     13.18309288	     -0.28781349	     -1.49638418	      3.07733762	     -5.24787160	     -1.78626169	    -12.56639758	     13.25993232	     13.25993232	     22.45527342	      1.85410282	     -4.11817527	     -9.76163593	      3.60697832	      0.71484540	    -21.70719520	    -11.39532957	    -15.58184130	     24.25487934	     47.16683088	      0.00000000	      0.00000000	     27.43085939	    -18.99685610	     -2.87473677	     85.92517273	     47.57131299	      0.00000000	      0.00000000
      9.00107143	     -2.68794888	     -1.78491948	      1.67007594	      1.06393490	      0.91244458	      0.44720809	     27.47415494	     -3.62232147	    -16.28500593	     14.24347726	     14.24347726	     -0.60404841	     -2.08263471	      2.80569101	     -5.96590333	     -2.17871889	    -12.30591506	     13.38660200	     13.38660200	     22.73706489	      1.88261411	     -4.15462416	     -9.50370459	      3.80112187	      0.64574321	    -22.12774692	    -11.45075285	    -15.56411065	     24.09320301	     47.16690742	      0.00000000	      0.00000000	     27.45033380	    -18.98986531	     -2.93084407	     86.07240073	     47.58091407	      0.00000000	      0.00000000
      9.01228571	     -2.71242989	     -1.71617000	      1.77956504	      1.06594783	      0.91094420	      0.44899150	     27.59914366	     -3.59203493	    -15.32217138	     15.66884745	     15.66884745	     -2.47889483	     -4.77084853	     -2.28298948	     -6.41115783	     -2.41009177	    -12.43371732	     14.01263705	     14.01263705	     23.51163451	      2.37074658	     -3.28074613	     -9.25638743	      3.61220709	      0.39768082	    -22.19508217	    -11.58495780	    -14.84006911	     24.34096814	     47.05293006	      0.00000000	      0.00000000	     26.89064289	    -19.11141742	     -3.56571510	     87.35672040	     47.71546304	      0.00000000	      0.00000000
      9.02350000	     -2.58523898	     -1.92417197	      1.93206004	      1.06799021	      0.91021170	      0.45085417	     27.52064522	     -3.42790063	    -15.19724342	     17.25995513	     17.25995513	     -2.46673323	     -5.59728283	     -2.67911589	     -7.06130758	     -2.90247540	    -12.22586966	     14.45945883	     14.45945883	     23.68562941	      2.21951217	     -3.32787083	     -9.16981408	      3.83015177	      0.47479189	    -22.20625679	    -11.68230984	    -14.81160633	     24.29899154	     47.05055874	      0.00000000	      0.00000000	     26.62998865	    -19.01905354	     -3.58310866	     87.40786592	     47.72042114	      0.00000000	      0.00000000
